<svg width="167" height="24" viewBox="0 0 167 24" fill="none" xmlns="http://www.w3.org/2000/svg">
<path d="M161.675 4.40702C162.567 3.83529 163.737 3.87591 164.615 4.46576C165.423 4.99598 166.018 5.77413 166.304 6.67241C166.413 7.0138 166.406 7.37921 166.286 7.71681C166.165 8.05442 165.938 8.34708 165.634 8.5533C165.331 8.75951 164.968 8.86881 164.596 8.86569C164.225 8.86257 163.864 8.7472 163.564 8.53593L160.631 6.46437C160.631 5.39238 161.11 4.76925 161.675 4.40849V4.40702Z" fill="url(#paint0_linear)"/>
<path d="M152.705 4.40702C151.813 3.83529 150.643 3.87591 149.766 4.46576C148.958 4.99598 148.363 5.77413 148.077 6.67241C147.968 7.0138 147.975 7.37921 148.095 7.71681C148.216 8.05442 148.443 8.34708 148.747 8.5533C149.05 8.75951 149.413 8.86881 149.785 8.86569C150.156 8.86257 150.517 8.7472 150.817 8.53593L153.75 6.46437C153.75 5.39238 153.271 4.76925 152.706 4.40849L152.705 4.40702Z" fill="url(#paint1_linear)"/>
<path d="M152.161 6.24311C151.996 6.08495 151.773 5.99612 151.54 5.99612C151.306 5.99612 151.083 6.08495 150.918 6.24311C150.162 6.96367 149.545 7.80807 149.098 8.73661C149.379 8.84743 149.684 8.88709 149.985 8.85177C150.286 8.81645 150.573 8.70735 150.818 8.53493L152.296 7.27056C152.395 7.10931 152.436 6.92074 152.412 6.73467C152.387 6.54859 152.299 6.37562 152.161 6.24311Z" fill="#5C586F"/>
<path d="M164.501 13.7074C164.069 16.7423 162.039 18.3763 157.19 18.3763C151.646 18.3763 149.789 16.2421 149.789 12.3163C149.789 11.1993 150.063 10.0981 150.589 9.10194C151.115 8.10574 151.878 7.24254 152.816 6.58225C153.754 5.92196 154.841 5.48314 155.989 5.30133C157.136 5.11952 158.312 5.19984 159.421 5.53578L164.501 13.7074Z" fill="url(#paint2_linear)"/>
<path d="M164.592 12.3183C164.594 12.7834 164.564 13.2482 164.501 13.7094C163.794 13.8974 163.052 13.9261 162.332 13.7931C161.612 13.6602 160.933 13.3693 160.349 12.9431C159.766 12.5169 159.292 11.9669 158.966 11.3361C158.64 10.7053 158.471 10.0106 158.47 9.30639C158.47 7.3484 158.678 6.19515 159.419 5.53726C160.92 5.99278 162.23 6.89572 163.16 8.11505C164.091 9.33438 164.592 10.8067 164.592 12.3183Z" fill="url(#paint3_linear)"/>
<path d="M152.191 12.2718C152.66 12.2718 153.04 11.9781 153.04 11.6158C153.04 11.2536 152.66 10.9599 152.191 10.9599C151.721 10.9599 151.341 11.2536 151.341 11.6158C151.341 11.9781 151.721 12.2718 152.191 12.2718Z" fill="#FFAECF"/>
<path d="M162.189 12.2718C162.659 12.2718 163.039 11.9781 163.039 11.6158C163.039 11.2536 162.659 10.9599 162.189 10.9599C161.72 10.9599 161.34 11.2536 161.34 11.6158C161.34 11.9781 161.72 12.2718 162.189 12.2718Z" fill="#FFAECF"/>
<path d="M155.311 10.2575C155.46 9.37531 154.836 8.54405 153.918 8.40085C152.999 8.25765 152.134 8.85673 151.985 9.73893C151.835 10.6211 152.459 11.4524 153.378 11.5956C154.296 11.7388 155.162 11.1397 155.311 10.2575Z" fill="white"/>
<path d="M160.733 11.6158C161.663 11.6158 162.418 10.8913 162.418 9.99755C162.418 9.1038 161.663 8.37927 160.733 8.37927C159.802 8.37927 159.048 9.1038 159.048 9.99755C159.048 10.8913 159.802 11.6158 160.733 11.6158Z" fill="white"/>
<path d="M154.66 10.1135C154.749 9.58622 154.376 9.08972 153.827 9.00451C153.278 8.9193 152.761 9.27764 152.672 9.80489C152.583 10.3321 152.956 10.8286 153.505 10.9138C154.054 10.9991 154.571 10.6407 154.66 10.1135Z" fill="#383842"/>
<path d="M160.733 10.9619C161.287 10.9619 161.737 10.5301 161.737 9.99754C161.737 9.46497 161.287 9.03323 160.733 9.03323C160.178 9.03323 159.729 9.46497 159.729 9.99754C159.729 10.5301 160.178 10.9619 160.733 10.9619Z" fill="#383842"/>
<path d="M157.749 12.1078C157.548 12.1065 157.352 12.046 157.188 11.9345C157.024 12.046 156.829 12.1065 156.628 12.1078C156.486 12.1048 156.347 12.0738 156.219 12.0166C156.09 11.9594 155.975 11.8772 155.882 11.7754C155.858 11.7514 155.84 11.7232 155.828 11.6925C155.816 11.6618 155.811 11.6291 155.812 11.5963C155.813 11.5635 155.821 11.5313 155.836 11.5015C155.85 11.4717 155.87 11.4448 155.895 11.4225C155.92 11.4001 155.949 11.3828 155.981 11.3713C156.013 11.3599 156.047 11.3546 156.081 11.3558C156.116 11.3569 156.149 11.3646 156.18 11.3782C156.211 11.3918 156.239 11.4112 156.262 11.4352C156.306 11.4892 156.362 11.5329 156.426 11.5629C156.49 11.593 156.56 11.6086 156.631 11.6086C156.703 11.6086 156.773 11.593 156.837 11.5629C156.901 11.5329 156.957 11.4892 157 11.4352C157.025 11.4102 157.054 11.3902 157.087 11.3765C157.12 11.3629 157.155 11.3558 157.191 11.3558C157.226 11.3558 157.261 11.3629 157.294 11.3765C157.327 11.3902 157.356 11.4102 157.381 11.4352C157.424 11.4892 157.48 11.5329 157.544 11.5629C157.608 11.593 157.678 11.6086 157.75 11.6086C157.821 11.6086 157.891 11.593 157.955 11.5629C158.019 11.5329 158.075 11.4892 158.119 11.4352C158.142 11.4112 158.17 11.3918 158.201 11.3782C158.232 11.3646 158.265 11.3569 158.3 11.3558C158.334 11.3546 158.368 11.3599 158.4 11.3713C158.432 11.3828 158.461 11.4001 158.486 11.4225C158.511 11.4448 158.531 11.4717 158.545 11.5015C158.56 11.5313 158.568 11.5635 158.569 11.5963C158.57 11.6291 158.565 11.6618 158.553 11.6925C158.541 11.7232 158.523 11.7514 158.499 11.7754C158.405 11.8777 158.29 11.96 158.161 12.0172C158.032 12.0744 157.892 12.1053 157.75 12.1078H157.749Z" fill="#383842"/>
<path d="M158.113 10.303C158.113 10.5889 157.7 10.8199 157.19 10.8199C156.68 10.8199 156.267 10.5889 156.267 10.303C156.267 10.0171 156.68 9.98386 157.19 9.98386C157.7 9.98386 158.113 10.0176 158.113 10.303Z" fill="#383842"/>
<path d="M11.8335 10.2387C11.2551 10.1546 10.7124 9.91789 10.2657 9.55501C9.81911 9.19213 9.48613 8.7173 9.3039 8.18341C9.12166 7.64951 9.09732 7.07751 9.23359 6.53111C9.36985 5.98471 9.66137 5.48536 10.0757 5.08869C11.3106 3.90264 13.6867 3.54433 14.9216 4.73038C15.0031 4.80861 15.0784 4.89255 15.1469 4.98149L11.8335 10.2387Z" fill="url(#paint4_linear)"/>
<path d="M14.5487 9.38404C14.198 9.72156 13.7694 9.97486 13.2976 10.1234C12.8259 10.2719 12.3243 10.3114 11.8336 10.2387C11.6381 9.6843 11.571 9.09554 11.6372 8.51364C11.7034 7.93174 11.9012 7.37076 12.2167 6.86997C12.5323 6.36918 12.958 5.94069 13.4641 5.61449C13.9702 5.28828 14.5444 5.07225 15.1465 4.98151C16.1057 6.21553 15.7015 8.27729 14.5487 9.38404Z" fill="url(#paint5_linear)"/>
<path d="M3.84854 10.2387C4.42695 10.1546 4.96971 9.91789 5.41634 9.55501C5.86297 9.19213 6.19594 8.7173 6.37818 8.18341C6.56042 7.64951 6.58476 7.07751 6.44849 6.53111C6.31223 5.98471 6.02071 5.48536 5.6064 5.08869C4.37146 3.90264 1.99537 3.54433 0.760941 4.73038C0.679179 4.80848 0.603701 4.89243 0.535156 4.98149L3.84854 10.2387Z" fill="url(#paint6_linear)"/>
<path d="M1.13403 9.38404C1.48459 9.72155 1.91312 9.97485 2.3848 10.1234C2.85647 10.2719 3.35797 10.3114 3.84855 10.2387C3.9958 9.82273 4.07071 9.38629 4.07025 8.94692C4.07001 7.98978 3.71365 7.06422 3.06544 6.33719C2.41723 5.61017 1.51985 5.12954 0.535165 4.98199C-0.42098 6.21553 -0.0193582 8.27729 1.13403 9.38404Z" fill="url(#paint7_linear)"/>
<path d="M2.37432 6.65751C2.27766 6.5651 2.1615 6.49366 2.03367 6.44799C1.90584 6.40233 1.76931 6.3835 1.63326 6.39277C1.49722 6.40205 1.36482 6.43922 1.24499 6.50177C1.12516 6.56433 1.02068 6.65081 0.938577 6.75541C0.661235 7.10542 0.412941 7.4758 0.195984 7.86314C0.378604 8.43423 0.69985 8.95549 1.13327 9.38401C1.38193 9.6233 1.67047 9.821 1.98697 9.96896L2.62253 7.52637C2.66269 7.37328 2.66093 7.21282 2.61744 7.06058C2.57395 6.90834 2.4902 6.76949 2.37432 6.65751Z" fill="#FD748D"/>
<path d="M0.795615 12.6509C0.756299 12.3647 0.736719 12.0762 0.737003 11.7875C0.752873 9.98794 1.50833 8.26731 2.83888 7.00021C4.16942 5.73311 5.96731 5.02216 7.84107 5.02216C9.71483 5.02216 11.5127 5.73311 12.8433 7.00021C14.1738 8.26731 14.9293 9.98794 14.9451 11.7875C14.9457 12.0764 14.9261 12.365 14.8865 12.6514L0.795615 12.6509Z" fill="url(#paint8_linear)"/>
<path d="M14.887 12.6514C14.4364 15.8708 11.4533 17.123 7.84127 17.123C4.22923 17.123 1.2456 15.8708 0.795563 12.6509C2.63038 10.9661 4.4652 11.5598 6.40196 8.04476C6.5402 7.7937 6.74775 7.58404 7.00184 7.43876C7.19175 7.32972 7.40272 7.25881 7.62198 7.23032C7.84124 7.20182 8.06424 7.21634 8.27749 7.27298C8.49074 7.32963 8.68982 7.42724 8.86267 7.55989C9.03552 7.69254 9.17856 7.85749 9.28314 8.04476C11.2163 11.5598 13.0547 10.9661 14.8895 12.6514H14.887Z" fill="url(#paint9_linear)"/>
<path d="M3.28227 11.8981C3.71013 11.8981 4.05697 11.6303 4.05697 11.2999C4.05697 10.9696 3.71013 10.7018 3.28227 10.7018C2.85441 10.7018 2.50757 10.9696 2.50757 11.2999C2.50757 11.6303 2.85441 11.8981 3.28227 11.8981Z" fill="#FFAECF"/>
<path d="M12.3998 11.8981C12.8277 11.8981 13.1745 11.6303 13.1745 11.2999C13.1745 10.9696 12.8277 10.7018 12.3998 10.7018C11.972 10.7018 11.6251 10.9696 11.6251 11.2999C11.6251 11.6303 11.972 11.8981 12.3998 11.8981Z" fill="#FFAECF"/>
<path d="M4.61049 11.2999C5.45889 11.2999 6.14665 10.6394 6.14665 9.82459C6.14665 9.00978 5.45889 8.34924 4.61049 8.34924C3.7621 8.34924 3.07434 9.00978 3.07434 9.82459C3.07434 10.6394 3.7621 11.2999 4.61049 11.2999Z" fill="white"/>
<path d="M11.0716 11.2999C11.92 11.2999 12.6078 10.6394 12.6078 9.82459C12.6078 9.00978 11.92 8.34924 11.0716 8.34924C10.2232 8.34924 9.53546 9.00978 9.53546 9.82459C9.53546 10.6394 10.2232 11.2999 11.0716 11.2999Z" fill="white"/>
<path d="M4.61052 10.7042C5.11635 10.7042 5.5264 10.3104 5.5264 9.82457C5.5264 9.33877 5.11635 8.94495 4.61052 8.94495C4.1047 8.94495 3.69464 9.33877 3.69464 9.82457C3.69464 10.3104 4.1047 10.7042 4.61052 10.7042Z" fill="#383842"/>
<path d="M11.0716 10.7042C11.5774 10.7042 11.9875 10.3104 11.9875 9.82457C11.9875 9.33877 11.5774 8.94495 11.0716 8.94495C10.5658 8.94495 10.1557 9.33877 10.1557 9.82457C10.1557 10.3104 10.5658 10.7042 11.0716 10.7042Z" fill="#383842"/>
<path d="M8.35092 11.7703C8.16897 11.7689 7.99156 11.7156 7.84125 11.6171C7.69108 11.7159 7.51358 11.7692 7.33158 11.7703C7.19889 11.768 7.06813 11.7393 6.94759 11.686C6.82705 11.6326 6.71935 11.5559 6.63129 11.4605C6.58662 11.4117 6.56352 11.3481 6.56688 11.2832C6.57024 11.2183 6.59981 11.1573 6.64931 11.113C6.6988 11.0687 6.76432 11.0447 6.83195 11.046C6.89958 11.0474 6.96399 11.074 7.01151 11.1203C7.04927 11.1672 7.09774 11.2052 7.15318 11.2314C7.20862 11.2575 7.26956 11.2711 7.33133 11.2711C7.39309 11.2711 7.45403 11.2575 7.50948 11.2314C7.56492 11.2052 7.61338 11.1672 7.65115 11.1203C7.67547 11.0952 7.7049 11.0753 7.7376 11.0616C7.77031 11.0479 7.80559 11.0409 7.84125 11.0409C7.87692 11.0409 7.9122 11.0479 7.9449 11.0616C7.97761 11.0753 8.00704 11.0952 8.03136 11.1203C8.06913 11.1672 8.11759 11.2052 8.17303 11.2314C8.22847 11.2575 8.28941 11.2711 8.35118 11.2711C8.41294 11.2711 8.47389 11.2575 8.52933 11.2314C8.58477 11.2052 8.63323 11.1672 8.671 11.1203C8.71851 11.074 8.78292 11.0474 8.85055 11.046C8.91818 11.0447 8.9837 11.0687 9.0332 11.113C9.08269 11.1573 9.11226 11.2183 9.11563 11.2832C9.11899 11.3481 9.09588 11.4117 9.05121 11.4605C8.96325 11.5558 8.85564 11.6326 8.73518 11.686C8.61473 11.7393 8.48405 11.768 8.35143 11.7703H8.35092Z" fill="#383842"/>
<path d="M27.8242 12.1895H22.1992V18H19.2695V3.78125H28.5273V6.1543H22.1992V9.82617H27.8242V12.1895ZM35.7246 10.0801C35.3405 10.028 35.002 10.002 34.709 10.002C33.6413 10.002 32.9414 10.3633 32.6094 11.0859V18H29.7871V7.43359H32.4531L32.5312 8.69336C33.0977 7.72331 33.8822 7.23828 34.8848 7.23828C35.1973 7.23828 35.4902 7.2806 35.7637 7.36523L35.7246 10.0801ZM36.3008 12.6191C36.3008 11.571 36.5026 10.6367 36.9062 9.81641C37.3099 8.99609 37.8893 8.36133 38.6445 7.91211C39.4062 7.46289 40.2884 7.23828 41.291 7.23828C42.7168 7.23828 43.8789 7.67448 44.7773 8.54688C45.6823 9.41927 46.1868 10.6042 46.291 12.1016L46.3105 12.8242C46.3105 14.4453 45.8581 15.7474 44.9531 16.7305C44.0482 17.707 42.834 18.1953 41.3105 18.1953C39.7871 18.1953 38.5697 17.707 37.6582 16.7305C36.7533 15.7539 36.3008 14.4258 36.3008 12.7461V12.6191ZM39.123 12.8242C39.123 13.8268 39.3118 14.5951 39.6895 15.1289C40.0671 15.6562 40.6074 15.9199 41.3105 15.9199C41.9941 15.9199 42.528 15.6595 42.9121 15.1387C43.2962 14.6113 43.4883 13.7715 43.4883 12.6191C43.4883 11.6361 43.2962 10.8743 42.9121 10.334C42.528 9.79362 41.9876 9.52344 41.291 9.52344C40.6009 9.52344 40.0671 9.79362 39.6895 10.334C39.3118 10.8678 39.123 11.6979 39.123 12.8242ZM50.6465 7.43359L50.7344 8.6543C51.4896 7.71029 52.502 7.23828 53.7715 7.23828C54.8913 7.23828 55.7246 7.56706 56.2715 8.22461C56.8184 8.88216 57.0983 9.86523 57.1113 11.1738V18H54.2891V11.2422C54.2891 10.6432 54.1589 10.2103 53.8984 9.94336C53.638 9.66992 53.2051 9.5332 52.5996 9.5332C51.8053 9.5332 51.2096 9.87174 50.8125 10.5488V18H47.9902V7.43359H50.6465ZM62.6387 4.83594V7.43359H64.4453V9.50391H62.6387V14.7773C62.6387 15.168 62.7135 15.4479 62.8633 15.6172C63.013 15.7865 63.2995 15.8711 63.7227 15.8711C64.0352 15.8711 64.3118 15.8483 64.5527 15.8027V17.9414C63.9993 18.1107 63.4297 18.1953 62.8438 18.1953C60.8646 18.1953 59.8555 17.196 59.8164 15.1973V9.50391H58.2734V7.43359H59.8164V4.83594H62.6387Z" fill="#3C2313"/>
<path d="M78.373 14.2637C78.2624 15.7936 77.696 16.998 76.6738 17.877C75.6582 18.7559 74.3171 19.1953 72.6504 19.1953C70.8275 19.1953 69.3919 18.5833 68.3438 17.3594C67.3021 16.1289 66.7812 14.4427 66.7812 12.3008V11.4316C66.7812 10.0645 67.0221 8.86003 67.5039 7.81836C67.9857 6.77669 68.6725 5.97917 69.5645 5.42578C70.4629 4.86589 71.5046 4.58594 72.6895 4.58594C74.3301 4.58594 75.6517 5.02539 76.6543 5.9043C77.6569 6.7832 78.2363 8.01693 78.3926 9.60547H75.4629C75.3913 8.6875 75.1341 8.02344 74.6914 7.61328C74.2552 7.19661 73.5879 6.98828 72.6895 6.98828C71.7129 6.98828 70.9805 7.33984 70.4922 8.04297C70.0104 8.73958 69.763 9.82357 69.75 11.2949V12.3691C69.75 13.9056 69.9811 15.0286 70.4434 15.7383C70.9121 16.4479 71.6478 16.8027 72.6504 16.8027C73.5553 16.8027 74.2292 16.5977 74.6719 16.1875C75.1211 15.7708 75.3783 15.1296 75.4434 14.2637H78.373ZM86.2344 19C86.1042 18.7461 86.0098 18.4303 85.9512 18.0527C85.2676 18.8145 84.3789 19.1953 83.2852 19.1953C82.25 19.1953 81.3906 18.8958 80.707 18.2969C80.0299 17.6979 79.6914 16.9427 79.6914 16.0312C79.6914 14.9115 80.1048 14.0521 80.9316 13.4531C81.765 12.8542 82.9661 12.5514 84.5352 12.5449H85.834V11.9395C85.834 11.4512 85.707 11.0605 85.4531 10.7676C85.2057 10.4746 84.8118 10.3281 84.2715 10.3281C83.7962 10.3281 83.4219 10.4421 83.1484 10.6699C82.8815 10.8978 82.748 11.2103 82.748 11.6074H79.9258C79.9258 10.9954 80.1146 10.429 80.4922 9.9082C80.8698 9.38737 81.4036 8.98047 82.0938 8.6875C82.7839 8.38802 83.5586 8.23828 84.418 8.23828C85.7201 8.23828 86.752 8.56706 87.5137 9.22461C88.2819 9.87565 88.666 10.7936 88.666 11.9785V16.5586C88.6725 17.5612 88.8125 18.3197 89.0859 18.834V19H86.2344ZM83.9004 17.0371C84.3171 17.0371 84.7012 16.946 85.0527 16.7637C85.4043 16.5749 85.6647 16.3242 85.834 16.0117V14.1953H84.7793C83.3665 14.1953 82.6146 14.6836 82.5234 15.6602L82.5137 15.8262C82.5137 16.1777 82.6374 16.4674 82.8848 16.6953C83.1322 16.9232 83.4707 17.0371 83.9004 17.0371ZM94.2129 5.83594V8.43359H96.0195V10.5039H94.2129V15.7773C94.2129 16.168 94.2878 16.4479 94.4375 16.6172C94.5872 16.7865 94.8737 16.8711 95.2969 16.8711C95.6094 16.8711 95.8861 16.8483 96.127 16.8027V18.9414C95.5736 19.1107 95.0039 19.1953 94.418 19.1953C92.4388 19.1953 91.4297 18.196 91.3906 16.1973V10.5039H89.8477V8.43359H91.3906V5.83594H94.2129ZM97.2012 15.1719C97.2012 14.5143 97.3835 13.9056 97.748 13.3457C98.1191 12.7858 98.7962 12.1641 99.7793 11.4805C99.3561 10.9141 99.0241 10.3835 98.7832 9.88867C98.5423 9.38737 98.4219 8.86654 98.4219 8.32617C98.4219 7.2194 98.7702 6.32096 99.4668 5.63086C100.17 4.93424 101.114 4.58594 102.299 4.58594C103.36 4.58594 104.229 4.90169 104.906 5.5332C105.59 6.16471 105.932 6.95247 105.932 7.89648C105.932 9.0293 105.359 10.0286 104.213 10.8945L103.119 11.6855L105.57 14.5371C105.954 13.7819 106.146 12.9486 106.146 12.0371H108.549C108.549 13.8861 108.122 15.3835 107.27 16.5293L109.398 19H106.195L105.463 18.1602C104.415 18.8503 103.21 19.1953 101.85 19.1953C100.443 19.1953 99.3171 18.8275 98.4707 18.0918C97.6243 17.3496 97.2012 16.3763 97.2012 15.1719ZM101.986 16.9297C102.663 16.9297 103.305 16.7409 103.91 16.3633L101.107 13.1211L100.902 13.2676C100.323 13.7624 100.033 14.3451 100.033 15.0156C100.033 15.582 100.212 16.0443 100.57 16.4023C100.935 16.7539 101.407 16.9297 101.986 16.9297ZM100.951 8.28711C100.951 8.77539 101.238 9.39062 101.811 10.1328L102.562 9.63477C102.947 9.38737 103.21 9.14648 103.354 8.91211C103.503 8.67773 103.578 8.39779 103.578 8.07227C103.578 7.74674 103.458 7.46354 103.217 7.22266C102.976 6.98177 102.667 6.86133 102.289 6.86133C101.885 6.86133 101.56 6.99154 101.312 7.25195C101.072 7.51237 100.951 7.85742 100.951 8.28711ZM110.902 19V4.78125H115.277C116.527 4.78125 117.644 5.06445 118.627 5.63086C119.617 6.19076 120.388 6.99154 120.941 8.0332C121.495 9.06836 121.771 10.2467 121.771 11.5684V12.2227C121.771 13.5443 121.498 14.7194 120.951 15.748C120.411 16.7767 119.646 17.5742 118.656 18.1406C117.667 18.707 116.55 18.9935 115.307 19H110.902ZM113.832 7.1543V16.6465H115.248C116.394 16.6465 117.27 16.2721 117.875 15.5234C118.48 14.7747 118.79 13.7038 118.803 12.3105V11.5586C118.803 10.1133 118.503 9.01953 117.904 8.27734C117.305 7.52865 116.43 7.1543 115.277 7.1543H113.832ZM123.285 13.6191C123.285 12.571 123.487 11.6367 123.891 10.8164C124.294 9.99609 124.874 9.36133 125.629 8.91211C126.391 8.46289 127.273 8.23828 128.275 8.23828C129.701 8.23828 130.863 8.67448 131.762 9.54688C132.667 10.4193 133.171 11.6042 133.275 13.1016L133.295 13.8242C133.295 15.4453 132.842 16.7474 131.938 17.7305C131.033 18.707 129.818 19.1953 128.295 19.1953C126.771 19.1953 125.554 18.707 124.643 17.7305C123.738 16.7539 123.285 15.4258 123.285 13.7461V13.6191ZM126.107 13.8242C126.107 14.8268 126.296 15.5951 126.674 16.1289C127.051 16.6562 127.592 16.9199 128.295 16.9199C128.979 16.9199 129.512 16.6595 129.896 16.1387C130.281 15.6113 130.473 14.7715 130.473 13.6191C130.473 12.6361 130.281 11.8743 129.896 11.334C129.512 10.7936 128.972 10.5234 128.275 10.5234C127.585 10.5234 127.051 10.7936 126.674 11.334C126.296 11.8678 126.107 12.6979 126.107 13.8242ZM134.623 13.6387C134.623 12.0176 135.007 10.7122 135.775 9.72266C136.55 8.73307 137.592 8.23828 138.9 8.23828C140.059 8.23828 140.961 8.63542 141.605 9.42969L141.723 8.43359H144.281V18.6484C144.281 19.5729 144.07 20.377 143.646 21.0605C143.23 21.7441 142.641 22.265 141.879 22.623C141.117 22.9811 140.225 23.1602 139.203 23.1602C138.428 23.1602 137.673 23.0039 136.938 22.6914C136.202 22.3854 135.645 21.9883 135.268 21.5L136.518 19.7812C137.221 20.569 138.074 20.9629 139.076 20.9629C139.825 20.9629 140.408 20.7611 140.824 20.3574C141.241 19.9603 141.449 19.3939 141.449 18.6582V18.0918C140.798 18.8275 139.942 19.1953 138.881 19.1953C137.611 19.1953 136.583 18.7005 135.795 17.7109C135.014 16.7148 134.623 15.3965 134.623 13.7559V13.6387ZM137.445 13.8438C137.445 14.8008 137.637 15.5527 138.021 16.0996C138.406 16.64 138.933 16.9102 139.604 16.9102C140.463 16.9102 141.078 16.5879 141.449 15.9434V11.5C141.072 10.8555 140.463 10.5332 139.623 10.5332C138.946 10.5332 138.412 10.8099 138.021 11.3633C137.637 11.9167 137.445 12.7435 137.445 13.8438Z" fill="white"/>
<defs>
<linearGradient id="paint0_linear" x1="160.632" y1="6.43144" x2="166.383" y2="6.43144" gradientUnits="userSpaceOnUse">
<stop stop-color="#4F4C5F"/>
<stop offset="1" stop-color="#77718A"/>
</linearGradient>
<linearGradient id="paint1_linear" x1="147.999" y1="6.43144" x2="153.749" y2="6.43144" gradientUnits="userSpaceOnUse">
<stop stop-color="#77718A"/>
<stop offset="1" stop-color="#4F4C5F"/>
</linearGradient>
<linearGradient id="paint2_linear" x1="157.146" y1="18.3759" x2="157.146" y2="5.20567" gradientUnits="userSpaceOnUse">
<stop stop-color="#F0A83E"/>
<stop offset="1" stop-color="#FFF5E3"/>
</linearGradient>
<linearGradient id="paint3_linear" x1="158.471" y1="9.70326" x2="164.593" y2="9.70326" gradientUnits="userSpaceOnUse">
<stop stop-color="#EFC4AB"/>
<stop offset="1" stop-color="#3C2313"/>
</linearGradient>
<linearGradient id="paint4_linear" x1="982.868" y1="1492.3" x2="1675.18" y2="1492.3" gradientUnits="userSpaceOnUse">
<stop stop-color="#4F4C5F"/>
<stop offset="1" stop-color="#77718A"/>
</linearGradient>
<linearGradient id="paint5_linear" x1="11.6131" y1="7.62687" x2="15.6831" y2="7.62687" gradientUnits="userSpaceOnUse">
<stop stop-color="#FD869C"/>
<stop offset="1" stop-color="#FDB0BF"/>
</linearGradient>
<linearGradient id="paint6_linear" x1="-20.0457" y1="1492.3" x2="672.264" y2="1492.3" gradientUnits="userSpaceOnUse">
<stop stop-color="#77718A"/>
<stop offset="1" stop-color="#4F4C5F"/>
</linearGradient>
<linearGradient id="paint7_linear" x1="-0.000225107" y1="7.62687" x2="4.07032" y2="7.62687" gradientUnits="userSpaceOnUse">
<stop stop-color="#FDB0BF"/>
<stop offset="1" stop-color="#FD869C"/>
</linearGradient>
<linearGradient id="paint8_linear" x1="7.84144" y1="12.6512" x2="7.84144" y2="4.96416" gradientUnits="userSpaceOnUse">
<stop stop-color="#FDB58A"/>
<stop offset="1" stop-color="#3C2313"/>
</linearGradient>
<linearGradient id="paint9_linear" x1="7.84139" y1="17.1233" x2="7.84139" y2="7.21544" gradientUnits="userSpaceOnUse">
<stop stop-color="#FFF5E3"/>
<stop offset="1" stop-color="#F0A83E"/>
</linearGradient>
</defs>
</svg>
