<svg width="25" height="25" viewBox="0 0 25 25" fill="none" xmlns="http://www.w3.org/2000/svg">
<path d="M8.59375 10.547H16.4062C16.8379 10.547 17.1875 10.1974 17.1875 9.76572V8.98447C17.1875 8.55283 16.8379 8.20323 16.4062 8.20323H8.59375C8.16211 8.20323 7.8125 8.55283 7.8125 8.98447V9.76572C7.8125 10.1974 8.16211 10.547 8.59375 10.547ZM7.8125 14.4532C7.8125 14.8848 8.16211 15.2344 8.59375 15.2344H16.4062C16.8379 15.2344 17.1875 14.8848 17.1875 14.4532V13.6719C17.1875 13.2403 16.8379 12.8907 16.4062 12.8907H8.59375C8.16211 12.8907 7.8125 13.2403 7.8125 13.6719V14.4532ZM12.5 20.3677C11.6982 20.3677 10.8965 20.1206 10.2119 19.626L0 12.2491V22.6563C0 23.9507 1.04932 25 2.34375 25H22.6562C23.9507 25 25 23.9507 25 22.6563V12.2491L14.7881 19.626C14.1035 20.1201 13.3018 20.3677 12.5 20.3677ZM24.1021 7.95664C23.6699 7.61778 23.2603 7.29893 22.6562 6.84288V4.68762C22.6562 3.3932 21.6069 2.34389 20.3125 2.34389H16.5259C16.3774 2.23647 16.2393 2.13588 16.0845 2.02358C15.2637 1.42446 13.6328 -0.0169391 12.5 0.000150652C11.3672 -0.0169391 9.73682 1.42446 8.91553 2.02358C8.76074 2.13588 8.62256 2.23647 8.47412 2.34389H4.6875C3.39307 2.34389 2.34375 3.3932 2.34375 4.68762V6.84288C1.73975 7.29845 1.33008 7.61778 0.897949 7.95664C0.618241 8.17585 0.392048 8.45579 0.236481 8.7753C0.0809144 9.0948 4.81351e-05 9.44551 0 9.80087L0 10.3209L4.6875 13.7071V4.68762H20.3125V13.7071L25 10.3209V9.80087C25 9.08115 24.6689 8.40098 24.1021 7.95664Z" fill="white"/>
</svg>
