<svg width="15" height="15" viewBox="0 0 15 15" fill="none" xmlns="http://www.w3.org/2000/svg">
<path d="M7.50015 6.42871C5.17371 6.42871 1.87521 10.5389 1.87521 13.1334C1.87521 14.3019 2.66065 15 3.97694 15C5.40779 15 6.3526 14.1603 7.50015 14.1603C8.65765 14.1603 9.60511 15 11.0234 15C12.3396 15 13.1251 14.3019 13.1251 13.1334C13.1251 10.5389 9.82659 6.42871 7.50015 6.42871ZM3.18535 6.0065C2.88066 4.84637 1.942 4.09504 1.08889 4.32807C0.235769 4.5611 -0.20866 5.69044 0.0960246 6.85057C0.400709 8.01071 1.33937 8.76204 2.19249 8.52901C3.0456 8.29598 3.49003 7.16664 3.18535 6.0065ZM5.66735 5.31076C6.57379 5.03822 7.0273 3.63868 6.68043 2.18491C6.33356 0.73114 5.31755 -0.2261 4.41112 0.0464407C3.50468 0.318981 3.05117 1.71851 3.39804 3.17228C3.74491 4.62606 4.76121 5.58363 5.66735 5.31076ZM13.9111 4.3284C13.058 4.09537 12.1196 4.8467 11.8147 6.00684C11.51 7.16698 11.9544 8.29631 12.8075 8.52934C13.6606 8.76237 14.599 8.01105 14.904 6.85091C15.2087 5.69077 14.7642 4.56144 13.9111 4.3284ZM9.33294 5.31076C10.2394 5.5833 11.2554 4.62606 11.6023 3.17228C11.9491 1.71851 11.4956 0.319316 10.5892 0.0464407C9.68274 -0.226434 8.66674 0.73114 8.31987 2.18491C7.97299 3.63868 8.4265 5.03822 9.33294 5.31076Z" fill="white"/>
</svg>
